<?xml version="1.0" encoding="UTF-8"?>
<svg width="38px" height="39px" viewBox="0 0 38 39" version="1.1" xmlns="http://www.w3.org/2000/svg" xmlns:xlink="http://www.w3.org/1999/xlink">
    <!-- Generator: Sketch 63.1 (92452) - https://sketch.com -->
    <title>Group 34</title>
    <desc>Created with Sketch.</desc>
    <g id="Page-1" stroke="none" stroke-width="1" fill="none" fill-rule="evenodd">
        <g id="Group-34">
            <g id="Group-25" transform="translate(5.000000, 6.747619)" fill="#0D2C7F" fill-rule="nonzero" stroke="#FFFFFF" stroke-width="0.5">
                <g id="Shape-2" transform="translate(0.803571, 0.147436)">
                    <g id="Shape-3">
                        <path d="M1.08590978,21.9373219 C1.0062587,21.9373219 0.926342059,21.9290306 0.846691046,21.9096842 C0.355243857,21.8013946 0,21.4034113 0,20.9260324 L0,18.8677755 C0,11.4910149 6.3423501,5.48910558 14.1375359,5.48910558 L14.4999484,5.48910558 L14.4999484,1.02938141 C14.4999484,0.609539198 14.7697001,0.23215863 15.1814961,0.0743723337 C15.5916992,-0.0819064822 16.0629681,0.0125642938 16.3704213,0.315825551 L25.7955338,9.57798164 C26.2014887,9.97596491 26.2014887,10.6071101 25.7955338,11.0050934 L16.3704213,20.2672495 C16.0629681,20.5705107 15.5887787,20.6639765 15.1814961,20.5087027 C14.7697001,20.3509164 14.4999484,19.9735358 14.4999484,19.5536936 L14.4999484,15.0942207 L12.777361,15.0942207 C8.21574354,15.0942207 4.11636788,17.492673 2.07783124,21.3526584 C1.89065115,21.7094363 1.49770582,21.9373219 1.08590978,21.9373219 L1.08590978,21.9373219 Z M14.1375359,7.54736249 C8.04741429,7.54736249 3.00443879,11.8764355 2.26633877,17.4542313 C4.90225855,14.6716147 8.68249891,13.0359638 12.777361,13.0359638 L15.5874512,13.0359638 C16.1877548,13.0359638 16.6749539,13.4970114 16.6749539,14.0650923 L16.6749539,17.0014752 L23.5029101,10.2915375 L16.6749539,3.58159991 L16.6749539,6.51823404 C16.6749539,7.08631494 16.1877548,7.54736249 15.5874512,7.54736249 L14.1375359,7.54736249 Z" id="Shape"></path>
                    </g>
                </g>
            </g>
            <circle id="Oval-Copy" stroke="#193685" stroke-width="2" cx="19" cy="19.747619" r="18"></circle>
        </g>
    </g>
</svg>