<?xml version="1.0" encoding="UTF-8"?>
<svg width="38px" height="38px" viewBox="0 0 38 38" version="1.1" xmlns="http://www.w3.org/2000/svg" xmlns:xlink="http://www.w3.org/1999/xlink">
    <!-- Generator: Sketch 63.1 (92452) - https://sketch.com -->
    <title>download</title>
    <desc>Created with Sketch.</desc>
    <defs>
        <path d="M0,19 C0,8.50658923 8.50658923,0 19,0 C29.4934108,0 38,8.50658923 38,19 C38,29.4934108 29.4934108,38 19,38 C8.50658923,38 0,29.4934108 0,19 Z" id="path-1"></path>
    </defs>
    <g id="Page-1" stroke="none" stroke-width="1" fill="none" fill-rule="evenodd">
        <g id="download">
            <mask id="mask-2" fill="white">
                <use xlink:href="#path-1"></use>
            </mask>
            <use id="Mask" fill="#3B5998" xlink:href="#path-1"></use>
            <g mask="url(#mask-2)" id="Group">
                <g>
                    <path d="M31.6461261,0.0346938608 L7.04139565,6.50999686e-06 C3.17765555,-0.00520792835 0.0399113424,3.12277494 0.0344697743,6.98712719 L6.50955204e-06,31.5908878 C-0.00520832655,35.4554667 3.12346661,38.593425 6.9872067,38.5986395 L31.5919371,38.6333268 C35.4565841,38.6385413 38.5934214,35.5105584 38.598863,31.6452993 L38.6333262,7.041312 C38.6387678,3.17718647 35.5105463,0.0399082991 31.6461261,0.0346938608 L31.6461261,0.0346938608 Z" id="Shape" fill="#3AAE36"></path>
                    <path d="M33.450813,18.0319043 C33.450813,11.7260618 27.1100399,6.59593496 19.3166667,6.59593496 C11.5235212,6.59593496 5.18252033,11.7260618 5.18252033,18.0319043 C5.18252033,23.6846976 10.2108044,28.4195878 17.0033507,29.3150034 C17.4630978,29.4138125 18.0896113,29.6180182 18.2484041,30.0100748 C18.3910213,30.366015 18.3418115,30.9238893 18.2939687,31.2839181 C18.2939687,31.2839181 18.1287969,32.27837 18.0923452,32.4905258 C18.030833,32.8466931 17.8082498,33.8836216 19.3166667,33.2501071 C20.8253114,32.6165927 27.4561033,28.4711503 30.4212212,25.0677989 L30.4205377,25.0677989 C32.469351,22.8288058 33.450813,20.5557405 33.450813,18.0319043 L33.450813,18.0319043 Z M13.8728338,21.6723577 L11.0974914,21.6723577 C10.6937766,21.6723577 10.3650407,21.341241 10.3650407,20.934149 L10.3650407,15.3430397 C10.3650407,14.9361744 10.6937766,14.6052846 11.0974914,14.6052846 C11.5014314,14.6052846 11.8297171,14.9361744 11.8297171,15.3430397 L11.8297171,20.196167 L13.8728338,20.196167 C14.2772241,20.196167 14.6052846,20.5270569 14.6052846,20.9339222 C14.6052846,21.341241 14.2772241,21.6723577 13.8728338,21.6723577 L13.8728338,21.6723577 Z M16.4898374,20.934149 C16.4898374,21.341241 16.1727265,21.6723577 15.7832388,21.6723577 C15.3935336,21.6723577 15.0764228,21.341241 15.0764228,20.934149 L15.0764228,15.3430397 C15.0764228,14.9361744 15.3935336,14.6052846 15.7832388,14.6052846 C16.1727265,14.6052846 16.4898374,14.9361744 16.4898374,15.3430397 L16.4898374,20.934149 L16.4898374,20.934149 Z M23.5569106,20.9341727 C23.5569106,21.2528055 23.3551638,21.5340189 23.0539007,21.6340311 C22.9781326,21.659431 22.8991981,21.6723577 22.8202635,21.6723577 C22.5906975,21.6723577 22.371083,21.5621402 22.2322125,21.3770837 L19.3749629,17.4754751 L19.3749629,20.9341727 C19.3749629,21.3412517 19.0452019,21.6723577 18.6392205,21.6723577 C18.2334653,21.6723577 17.903252,21.3412517 17.903252,20.9341727 L17.903252,15.3432428 C17.903252,15.0252903 18.1054511,14.744077 18.4062619,14.6433844 C18.48203,14.6177577 18.5609645,14.6052846 18.6398991,14.6052846 C18.8694651,14.6052846 19.0895319,14.7152753 19.2274978,14.9003318 L22.0856521,18.8021672 L22.0856521,15.3432428 C22.0856521,14.9363906 22.4160915,14.6055113 22.8213944,14.6055113 C23.2273758,14.6055113 23.5569106,14.9363906 23.5569106,15.3432428 L23.5569106,20.9341727 L23.5569106,20.9341727 Z M28.0068327,17.4009526 C28.4111801,17.4009526 28.7394309,17.7320692 28.7394309,18.1389345 C28.7394309,18.545573 28.4111801,18.8764629 28.0068327,18.8764629 L25.9646084,18.8764629 L25.9646084,20.1963938 L28.0068327,20.1963938 C28.4105047,20.1963938 28.7394309,20.5272837 28.7394309,20.934149 C28.7394309,21.341241 28.4105047,21.6723577 28.0068327,21.6723577 L25.23156,21.6723577 C24.8283383,21.6723577 24.499187,21.341241 24.499187,20.934149 L24.499187,18.1405221 L24.499187,18.1389345 L24.499187,15.3430397 C24.499187,14.9361744 24.8276629,14.6052846 25.23156,14.6052846 L28.0068327,14.6052846 C28.4111801,14.6052846 28.7394309,14.9361744 28.7394309,15.3430397 C28.7394309,15.749905 28.4111801,16.0807949 28.0068327,16.0807949 L25.9646084,16.0807949 L25.9646084,17.4007258 L28.0068327,17.4007258 L28.0068327,17.4009526 Z" id="Shape" fill="#FFFFFF"></path>
                </g>
            </g>
        </g>
    </g>
</svg>